<svg xmlns="http://www.w3.org/2000/svg" version="1.1" xmlns:xlink="http://www.w3.org/1999/xlink" xmlns:svgjs="http://svgjs.dev/svgjs" width="2000" height="611" viewBox="0 0 2000 611"><g transform="matrix(1,0,0,1,-1.212099625302585,1.1641983471074013)"><svg viewBox="0 0 396 121" data-background-color="#102e44" preserveAspectRatio="xMidYMid meet" height="611" width="2000" xmlns="http://www.w3.org/2000/svg" xmlns:xlink="http://www.w3.org/1999/xlink"><g id="tight-bounds" transform="matrix(1,0,0,1,0.2399962600836716,-0.23055319148934927)"><svg viewBox="0 0 395.52 121.46110638297873" height="121.46110638297873" width="395.52"><g><svg viewBox="0 0 395.52 121.46110638297873" height="121.46110638297873" width="395.52"><g><svg viewBox="0 0 395.52 121.46110638297873" height="121.46110638297873" width="395.52"><g><svg viewBox="0 0 395.52 121.46110638297873" height="121.46110638297873" width="395.52"><g><svg viewBox="0 0 395.52 121.46110638297873" height="121.46110638297873" width="395.52"><g transform="matrix(1,0,0,1,0,0)"><svg width="395.52" viewBox="0.6000003814697266 -38.900001525878906 282.3999938964844 82.9000015258789" height="121.46110638297873" data-palette-color="#ffffff"><svg></svg><svg></svg><g class="undefined-text-0" data-fill-palette-color="primary" id="text-0"><path xmlns="http://www.w3.org/2000/svg" d="M29.25-38.9l8.45 30.7h2v8.2h-19.6v-8.2h3l-0.8-4h-6.8l-0.8 4h3v8.2h-17.1v-8.2h2l8.45-30.7zM18.65-27.45l-2.05 9.95h4.6l-2.05-9.95zM70.1-30.7v-8.2h16.4v8.2h-2.5v30.7h-14.05l-14.65-22.55v14.35h2.4v8.2h-16.4v-8.2h2.5v-22.5h-2.5v-8.2h18.05l13.15 20.05v-11.85zM116.65-38.9l8.45 30.7h2v8.2h-19.6v-8.2h3l-0.8-4h-6.8l-0.8 4h3v8.2h-17.1v-8.2h2l8.45-30.7zM106.05-27.45l-2.05 9.95h4.6l-2.05-9.95z" fill="#ffffff" fill-rule="nonzero" stroke="none" stroke-width="1" stroke-linecap="butt" stroke-linejoin="miter" stroke-miterlimit="10" stroke-dasharray="" stroke-dashoffset="0" font-family="none" font-weight="none" font-size="none" text-anchor="none" style="mix-blend-mode: normal" data-fill-palette-color="primary" opacity="1"></path><path xmlns="http://www.w3.org/2000/svg" d="M1 43.3v-8.2h2.5v-22.5h-2.5v-8.2h22.95c4.167 0 7.417 0.85 9.75 2.55 2.333 1.7 3.5 4.133 3.5 7.3v0c0 1.967-0.467 3.623-1.4 4.97-0.933 1.353-2.027 2.37-3.28 3.05-1.247 0.687-2.453 1.147-3.62 1.38v0 0.5c2.367 0.233 4.5 0.983 6.4 2.25 1.9 1.267 2.85 3.533 2.85 6.8v0c0 3.5-1.317 6.057-3.95 7.67-2.633 1.62-6.05 2.43-10.25 2.43v0zM17.5 20.8h2.7c0.967 0 1.693-0.26 2.18-0.78 0.48-0.513 0.72-1.32 0.72-2.42v0-1.8c0-1.1-0.24-1.91-0.72-2.43-0.487-0.513-1.213-0.77-2.18-0.77v0h-2.7zM17.5 35.1h3.05c0.967 0 1.693-0.257 2.18-0.77 0.48-0.52 0.72-1.33 0.72-2.43v0-2.2c0-1.1-0.24-1.91-0.72-2.43-0.487-0.513-1.213-0.77-2.18-0.77v0h-3.05zM68 4.4l8.45 30.7h2v8.2h-19.6v-8.2h3l-0.8-4h-6.8l-0.8 4h3v8.2h-17.1v-8.2h2l8.45-30.7zM57.4 15.85l-2.05 9.95h4.6l-2.05-9.95zM96.75 44c-5.233 0-9.273-1.15-12.12-3.45-2.853-2.3-4.28-6.033-4.28-11.2v0-16.75h-2.5v-8.2h18.5v8.2h-2v19.3c0 1.1 0.243 1.91 0.73 2.43 0.48 0.513 1.203 0.77 2.17 0.77v0c0.967 0 1.693-0.257 2.18-0.77 0.48-0.52 0.72-1.33 0.72-2.43v0-19.3h-2v-8.2h17.15v8.2h-2.5v16.75c0 5.167-1.383 8.9-4.15 11.2-2.767 2.3-6.733 3.45-11.9 3.45zM154.4 4.4v12.1h-8.6v-3.9h-3.2v22.5h3.5v8.2h-21v-8.2h3.5v-22.5h-3.2v3.9h-8.6v-12.1zM175.1 43.3h-19v-8.2h2.5v-22.5h-2.5v-8.2h19v8.2h-2.5v22.5h2.5zM192.6 44c-3.2 0-6.223-0.277-9.07-0.83-2.853-0.547-5.047-1.17-6.58-1.87v0-9.9h11c0 1.033 0.233 1.783 0.7 2.25 0.467 0.467 1.317 0.7 2.55 0.7v0c1.033 0 1.777-0.16 2.23-0.48 0.447-0.313 0.67-0.787 0.67-1.42v0c0-0.533-0.217-0.993-0.65-1.38-0.433-0.38-1.183-0.77-2.25-1.17v0l-4.3-1.5c-3.7-1.4-6.357-3.05-7.97-4.95-1.62-1.9-2.43-4.467-2.43-7.7v0c0-3.933 1.293-6.923 3.88-8.97 2.58-2.053 6.887-3.08 12.92-3.08v0c2.9 0 5.627 0.29 8.18 0.87 2.547 0.587 4.603 1.363 6.17 2.33v0 8.95h-10c0-1.667-1.033-2.5-3.1-2.5v0c-1 0-1.707 0.123-2.12 0.37-0.42 0.253-0.63 0.697-0.63 1.33v0c0 0.567 0.243 1.017 0.73 1.35 0.48 0.333 1.27 0.683 2.37 1.05v0l4.35 1.5c3.533 1.2 6.11 2.757 7.73 4.67 1.613 1.92 2.42 4.43 2.42 7.53v0c0 4.233-1.423 7.433-4.27 9.6-2.853 2.167-7.03 3.25-12.53 3.25zM248.1 4.4v12.1h-8.6v-3.9h-3.2v22.5h3.5v8.2h-21v-8.2h3.5v-22.5h-3.2v3.9h-8.6v-12.1zM272.55 4.4l8.45 30.7h2v8.2h-19.6v-8.2h3l-0.8-4h-6.8l-0.8 4h3v8.2h-17.1v-8.2h2l8.45-30.7zM261.95 15.85l-2.05 9.95h4.6l-2.05-9.95z" fill="#b2fcfb" fill-rule="nonzero" stroke="none" stroke-width="1" stroke-linecap="butt" stroke-linejoin="miter" stroke-miterlimit="10" stroke-dasharray="" stroke-dashoffset="0" font-family="none" font-weight="none" font-size="none" text-anchor="none" style="mix-blend-mode: normal" data-fill-palette-color="accent" opacity="1"></path></g></svg></g></svg></g></svg></g></svg></g></svg></g><defs></defs></svg><rect width="395.52" height="121.46110638297873" fill="none" stroke="none" visibility="hidden"></rect></g></svg></g></svg>